<?xml version="1.0" encoding="UTF-8" standalone="no" ?>
<svg xmlns="http://www.w3.org/2000/svg" width="1920" height="1080" viewBox="0 0 1920 1080">
<rect x="0" y="0" width="1920" height="1080" style="fill: #EEEEEE;"/>
<path style="fill:hsla(328.268921,53%,74%,0.750000);stroke:none;fill-opacity:1" d="M 427,671 C 373,711 267,524 293,471 C 373,444 413,417 467,457 C 520,537 480,644 427,671 Z"/>
<path style="fill:hsla(38.468964,42%,77%,0.750000);stroke:none;fill-opacity:1" d="M 863,692 C 821,667 972,567 997,600 C 1013,634 1005,675 988,717 C 963,759 896,717 863,692 Z"/>
<path style="fill:hsla(13.374166,53%,55%,0.750000);stroke:none;fill-opacity:1" d="M 1427,212 C 1379,177 1439,-24 1498,-12 C 1557,22 1593,58 1581,106 C 1581,177 1510,236 1427,212 Z"/>
<path style="fill:hsla(20.233011,61%,84%,0.750000);stroke:none;fill-opacity:1" d="M 1383,31 C 1424,86 1246,290 1205,249 C 1164,195 1123,86 1191,45 C 1232,-9 1328,-36 1383,31 Z"/>
<path style="fill:hsla(275.783325,39%,56%,0.750000);stroke:none;fill-opacity:1" d="M 721,213 C 683,251 518,100 544,62 C 582,0 683,11 733,36 C 771,100 771,163 721,213 Z"/>
<path style="fill:hsla(120.625282,51%,82%,0.750000);stroke:none;fill-opacity:1" d="M 1278,718 C 1310,812 1012,843 965,749 C 965,655 1027,623 1106,592 C 1184,529 1247,639 1278,718 Z"/>
<path style="fill:hsla(162.341476,48%,55%,0.750000);stroke:none;fill-opacity:1" d="M 5,860 C -9,751 317,829 286,906 C 255,984 177,1016 130,1031 C 5,1031 -9,953 5,860 Z"/>
<path style="fill:hsla(244.990326,62%,77%,0.750000);stroke:none;fill-opacity:1" d="M 1562,113 C 1639,97 1716,389 1639,420 C 1562,420 1455,389 1455,297 C 1440,236 1516,143 1562,113 Z"/>
<path style="fill:hsla(196.421356,47%,71%,0.750000);stroke:none;fill-opacity:1" d="M 946,812 C 886,842 877,635 916,625 C 956,605 985,654 1015,714 C 1044,763 975,812 946,812 Z"/>
<path style="fill:hsla(64.769836,35%,64%,0.750000);stroke:none;fill-opacity:1" d="M 920,334 C 865,375 701,197 728,128 C 769,100 879,59 906,114 C 975,155 989,306 920,334 Z"/>
<path style="fill:hsla(337.324219,62%,63%,0.750000);stroke:none;fill-opacity:1" d="M 655,956 C 568,941 699,695 771,710 C 843,782 843,826 843,898 C 800,985 756,1014 655,956 Z"/>
<path style="fill:hsla(348.755615,35%,82%,0.750000);stroke:none;fill-opacity:1" d="M 1774,320 C 1818,294 1870,459 1835,485 C 1792,485 1748,476 1740,424 C 1722,381 1722,346 1774,320 Z"/>
<path style="fill:hsla(341.966766,52%,60%,0.750000);stroke:none;fill-opacity:1" d="M 865,136 C 850,50 1140,-51 1154,35 C 1183,108 1111,223 1067,238 C 981,252 879,209 865,136 Z"/>
<path style="fill:hsla(56.471115,36%,83%,0.750000);stroke:none;fill-opacity:1" d="M 282,453 C 341,483 104,690 60,631 C 1,557 30,439 75,424 C 149,379 237,365 282,453 Z"/>
<path style="fill:hsla(219.749435,35%,60%,0.750000);stroke:none;fill-opacity:1" d="M 357,1073 C 323,1107 238,955 272,930 C 323,921 357,938 390,963 C 424,1006 382,1065 357,1073 Z"/>
<path style="fill:hsla(32.990349,47%,75%,0.750000);stroke:none;fill-opacity:1" d="M 355,450 C 346,412 519,373 548,421 C 557,489 509,537 461,527 C 403,546 365,479 355,450 Z"/>
<path style="fill:hsla(204.969284,50%,62%,0.750000);stroke:none;fill-opacity:1" d="M 239,639 C 198,694 47,447 116,419 C 171,364 294,392 335,433 C 376,488 321,639 239,639 Z"/>

</svg>

