<?xml version="1.0" encoding="UTF-8" standalone="no" ?>
<svg xmlns="http://www.w3.org/2000/svg" width="1080" height="2400" viewBox="0 0 1080 2400">
<rect x="0" y="0" width="1080" height="2400" style="fill: #121212;"/>
<path style="fill:hsla(202.161575,63%,59%,0.720000);stroke:none;fill-opacity:1" d="M 148,2379 C 110,2466 -38,2292 0,2218 C 48,2156 98,2168 135,2205 C 222,2268 185,2342 148,2379 Z"/>
<path style="fill:hsla(144.055435,45%,75%,0.720000);stroke:none;fill-opacity:1" d="M 751,1264 C 666,1195 888,956 956,1059 C 1007,1127 1110,1144 1024,1247 C 939,1383 819,1366 751,1264 Z"/>
<path style="fill:hsla(335.519318,47%,59%,0.720000);stroke:none;fill-opacity:1" d="M 648,1837 C 604,1895 487,1647 560,1589 C 648,1516 677,1516 706,1618 C 749,1677 749,1793 648,1837 Z"/>
<path style="fill:hsla(242.126053,30%,69%,0.720000);stroke:none;fill-opacity:1" d="M 983,1738 C 948,1843 686,1616 756,1511 C 826,1441 878,1371 948,1459 C 1105,1546 1035,1651 983,1738 Z"/>
<path style="fill:hsla(284.882904,45%,61%,0.720000);stroke:none;fill-opacity:1" d="M 348,507 C 285,428 554,333 632,412 C 664,475 648,523 554,570 C 475,665 380,586 348,507 Z"/>
<path style="fill:hsla(327.744781,63%,69%,0.720000);stroke:none;fill-opacity:1" d="M 957,1536 C 878,1536 741,1183 878,1183 C 996,1164 1016,1222 1055,1281 C 1153,1458 1094,1576 957,1536 Z"/>
<path style="fill:hsla(8.146928,39%,59%,0.720000);stroke:none;fill-opacity:1" d="M 598,1276 C 637,1393 376,1432 350,1315 C 337,1250 350,1198 441,1198 C 494,1171 624,1198 598,1276 Z"/>
<path style="fill:hsla(50.801426,30%,55%,0.720000);stroke:none;fill-opacity:1" d="M 420,2153 C 495,2153 450,2392 346,2437 C 196,2422 211,2392 256,2303 C 211,2198 331,2108 420,2153 Z"/>
<path style="fill:hsla(214.572876,38%,68%,0.720000);stroke:none;fill-opacity:1" d="M 254,1332 C 215,1370 86,1241 112,1164 C 215,1138 202,1138 228,1164 C 293,1229 305,1280 254,1332 Z"/>
<path style="fill:hsla(199.501877,45%,56%,0.720000);stroke:none;fill-opacity:1" d="M 696,281 C 794,320 617,616 539,616 C 362,557 342,517 421,380 C 499,183 539,202 696,281 Z"/>
<path style="fill:hsla(202.386230,44%,72%,0.720000);stroke:none;fill-opacity:1" d="M 845,2210 C 744,2152 932,1921 990,1964 C 1091,2007 1091,2094 1048,2166 C 990,2224 932,2238 845,2210 Z"/>
<path style="fill:hsla(90.683372,57%,72%,0.720000);stroke:none;fill-opacity:1" d="M 157,1438 C 15,1509 50,1154 121,1119 C 192,1119 281,1101 263,1243 C 352,1350 263,1492 157,1438 Z"/>
<path style="fill:hsla(324.257751,46%,70%,0.720000);stroke:none;fill-opacity:1" d="M 327,1783 C 281,1707 524,1570 555,1631 C 600,1722 661,1813 555,1828 C 494,1889 387,1828 327,1783 Z"/>
<path style="fill:hsla(33.687698,64%,83%,0.720000);stroke:none;fill-opacity:1" d="M 428,1659 C 311,1559 629,1492 679,1525 C 696,1659 746,1626 663,1692 C 579,1793 445,1759 428,1659 Z"/>
<path style="fill:hsla(275.187347,30%,65%,0.720000);stroke:none;fill-opacity:1" d="M 687,1669 C 658,1768 446,1640 474,1555 C 531,1428 602,1400 630,1470 C 758,1485 743,1555 687,1669 Z"/>
<path style="fill:hsla(276.449524,35%,68%,0.720000);stroke:none;fill-opacity:1" d="M 89,1277 C 42,1289 -39,1113 31,1054 C 89,1007 124,1019 148,1101 C 171,1160 160,1218 89,1277 Z"/>
<path style="fill:hsla(155.128189,56%,55%,0.720000);stroke:none;fill-opacity:1" d="M 207,509 C 300,525 238,788 98,773 C 52,742 -9,711 5,618 C 21,556 129,463 207,509 Z"/>
<path style="fill:hsla(112.138397,54%,64%,0.720000);stroke:none;fill-opacity:1" d="M 868,1552 C 986,1582 749,1731 689,1716 C 645,1656 585,1641 645,1582 C 719,1493 764,1463 868,1552 Z"/>
<path style="fill:hsla(119.117592,42%,75%,0.720000);stroke:none;fill-opacity:1" d="M 860,1981 C 894,1879 1251,1981 1183,2117 C 1166,2235 1081,2218 996,2185 C 860,2185 809,2049 860,1981 Z"/>
<path style="fill:hsla(110.180756,61%,79%,0.720000);stroke:none;fill-opacity:1" d="M 214,1946 C 203,1881 441,1935 409,2000 C 376,2065 344,2076 311,2076 C 225,2076 182,2011 214,1946 Z"/>
<path style="fill:hsla(107.244186,58%,76%,0.720000);stroke:none;fill-opacity:1" d="M 902,105 C 953,23 1086,156 1086,197 C 1065,258 984,268 963,238 C 902,187 871,176 902,105 Z"/>

</svg>

