<?xml version="1.0" encoding="UTF-8" standalone="no" ?>
<svg xmlns="http://www.w3.org/2000/svg" width="1600" height="900" viewBox="0 0 1600 900">
<rect x="0" y="0" width="1600" height="900" style="fill: #E5E5E5;"/>
<path style="fill:hsla(55.348114,63%,60%,0.720000);stroke:none;fill-opacity:1" d="M 1013,751 C 1037,719 1117,823 1109,863 C 1053,887 1029,887 1013,863 C 981,839 989,799 1013,751 Z"/>
<path style="fill:hsla(28.000175,43%,58%,0.720000);stroke:none;fill-opacity:1" d="M 724,296 C 765,264 863,353 822,386 C 765,451 781,435 740,419 C 700,370 659,321 724,296 Z"/>
<path style="fill:hsla(242.600800,31%,52%,0.720000);stroke:none;fill-opacity:1" d="M 108,178 C 48,118 278,45 314,93 C 350,178 338,239 278,239 C 181,311 181,226 108,178 Z"/>
<path style="fill:hsla(19.994967,62%,53%,0.720000);stroke:none;fill-opacity:1" d="M 329,653 C 368,661 299,777 260,761 C 206,715 191,715 237,684 C 252,653 275,645 329,653 Z"/>
<path style="fill:hsla(338.006561,41%,68%,0.720000);stroke:none;fill-opacity:1" d="M 1257,842 C 1220,851 1147,704 1202,695 C 1266,658 1276,658 1285,704 C 1340,778 1294,805 1257,842 Z"/>
<path style="fill:hsla(176.204391,47%,47%,0.720000);stroke:none;fill-opacity:1" d="M 89,926 C 15,926 78,735 163,756 C 258,788 258,788 205,841 C 174,958 142,947 89,926 Z"/>
<path style="fill:hsla(291.119171,48%,46%,0.720000);stroke:none;fill-opacity:1" d="M 496,603 C 554,546 716,650 658,731 C 612,788 577,788 519,777 C 450,719 427,638 496,603 Z"/>
<path style="fill:hsla(300.866974,55%,75%,0.720000);stroke:none;fill-opacity:1" d="M 1391,247 C 1410,209 1562,332 1553,361 C 1524,399 1496,370 1448,370 C 1381,332 1343,332 1391,247 Z"/>
<path style="fill:hsla(8.627106,64%,47%,0.720000);stroke:none;fill-opacity:1" d="M 1382,514 C 1393,547 1199,622 1178,525 C 1146,482 1221,439 1264,428 C 1328,385 1350,439 1382,514 Z"/>
<path style="fill:hsla(42.869530,38%,69%,0.720000);stroke:none;fill-opacity:1" d="M 1245,350 C 1192,287 1392,213 1456,277 C 1477,350 1477,414 1403,424 C 1318,445 1266,414 1245,350 Z"/>
<path style="fill:hsla(335.967987,43%,58%,0.720000);stroke:none;fill-opacity:1" d="M 311,493 C 324,416 569,558 492,623 C 453,726 401,739 376,674 C 259,636 233,571 311,493 Z"/>
<path style="fill:hsla(156.745392,50%,73%,0.720000);stroke:none;fill-opacity:1" d="M 1218,344 C 1241,230 1448,390 1413,448 C 1390,494 1356,528 1287,505 C 1184,471 1149,390 1218,344 Z"/>
<path style="fill:hsla(238.367889,61%,52%,0.720000);stroke:none;fill-opacity:1" d="M 331,273 C 355,224 486,338 445,379 C 421,428 388,436 364,387 C 298,346 306,330 331,273 Z"/>
<path style="fill:hsla(300.510498,38%,50%,0.720000);stroke:none;fill-opacity:1" d="M 3,237 C 38,189 240,284 193,367 C 122,438 86,415 62,391 C 15,367 -67,284 3,237 Z"/>
<path style="fill:hsla(151.352158,55%,58%,0.720000);stroke:none;fill-opacity:1" d="M 1566,808 C 1634,831 1429,956 1395,922 C 1361,842 1350,831 1384,808 C 1429,751 1543,717 1566,808 Z"/>
<path style="fill:hsla(117.672256,51%,54%,0.720000);stroke:none;fill-opacity:1" d="M 1538,112 C 1583,121 1565,274 1493,256 C 1430,238 1421,256 1430,193 C 1421,148 1484,76 1538,112 Z"/>
<path style="fill:hsla(274.206512,62%,46%,0.720000);stroke:none;fill-opacity:1" d="M 1009,903 C 948,883 1100,741 1120,762 C 1170,832 1200,863 1170,883 C 1110,963 1049,923 1009,903 Z"/>
<path style="fill:hsla(193.655090,44%,66%,0.720000);stroke:none;fill-opacity:1" d="M 108,118 C 54,65 215,-63 247,-31 C 332,11 300,32 257,97 C 236,161 161,182 108,118 Z"/>
<path style="fill:hsla(26.802963,35%,50%,0.720000);stroke:none;fill-opacity:1" d="M 1182,741 C 1215,731 1291,873 1269,917 C 1204,982 1204,971 1171,884 C 1149,829 1138,796 1182,741 Z"/>
<path style="fill:hsla(225.689453,45%,56%,0.720000);stroke:none;fill-opacity:1" d="M 805,508 C 823,424 953,535 953,573 C 916,610 879,619 842,619 C 796,591 777,563 805,508 Z"/>
<path style="fill:hsla(344.221069,57%,63%,0.720000);stroke:none;fill-opacity:1" d="M 154,309 C 105,430 -26,249 -26,200 C 9,164 33,80 105,152 C 214,188 178,249 154,309 Z"/>
<path style="fill:hsla(311.798584,58%,47%,0.720000);stroke:none;fill-opacity:1" d="M 309,124 C 410,98 449,364 347,377 C 258,339 246,403 233,301 C 246,212 258,124 309,124 Z"/>

</svg>

