<?xml version="1.0" encoding="UTF-8" standalone="no" ?>
<svg xmlns="http://www.w3.org/2000/svg" width="1920" height="1080" viewBox="0 0 1920 1080">
<rect x="0" y="0" width="1920" height="1080" style="fill: rgb(237, 237, 237);"/>
<path style="fill:rgb(168,193,155);stroke:none;fill-opacity:1" d="M 673,-22 C 767,-69 767,118 720,165 C 627,228 627,228 596,150 C 533,103 611,25 673,-22 Z"/>
<path style="fill:rgb(193,187,155);stroke:none;fill-opacity:1" d="M 156,1005 C 194,1080 32,1055 32,992 C 6,943 19,893 82,905 C 144,867 182,943 156,1005 Z"/>
<path style="fill:rgb(177,155,193);stroke:none;fill-opacity:1" d="M 406,485 C 458,420 497,589 432,628 C 380,654 393,680 341,615 C 289,550 367,537 406,485 Z"/>
<path style="fill:rgb(175,155,193);stroke:none;fill-opacity:1" d="M 1493,643 C 1522,759 1291,716 1291,643 C 1276,586 1320,528 1392,528 C 1508,499 1493,600 1493,643 Z"/>
<path style="fill:rgb(193,162,155);stroke:none;fill-opacity:1" d="M 1498,758 C 1429,814 1388,579 1471,565 C 1539,552 1553,552 1567,607 C 1581,689 1567,717 1498,758 Z"/>
<path style="fill:rgb(155,184,193);stroke:none;fill-opacity:1" d="M 1502,658 C 1528,564 1648,711 1634,791 C 1581,871 1528,857 1502,817 C 1408,804 1435,738 1502,658 Z"/>
<path style="fill:rgb(156,155,193);stroke:none;fill-opacity:1" d="M 862,595 C 951,607 785,734 735,670 C 671,607 684,607 722,569 C 785,518 836,556 862,595 Z"/>
<path style="fill:rgb(191,193,155);stroke:none;fill-opacity:1" d="M 461,629 C 526,578 551,731 474,757 C 436,770 424,795 398,731 C 359,681 398,629 461,629 Z"/>
<path style="fill:rgb(169,193,155);stroke:none;fill-opacity:1" d="M 1171,393 C 1115,324 1282,282 1351,310 C 1421,380 1393,434 1337,462 C 1295,532 1185,462 1171,393 Z"/>
<path style="fill:rgb(155,193,159);stroke:none;fill-opacity:1" d="M 1546,419 C 1441,419 1516,194 1591,239 C 1636,254 1696,284 1711,344 C 1696,434 1621,419 1546,419 Z"/>
<path style="fill:rgb(181,155,193);stroke:none;fill-opacity:1" d="M 723,722 C 692,646 903,752 918,812 C 903,902 934,887 843,872 C 768,842 708,812 723,722 Z"/>
<path style="fill:rgb(170,155,193);stroke:none;fill-opacity:1" d="M 333,472 C 376,543 191,543 163,444 C 163,359 134,416 234,402 C 333,387 319,430 333,472 Z"/>
<path style="fill:rgb(184,193,155);stroke:none;fill-opacity:1" d="M 112,943 C 17,903 153,795 220,822 C 301,890 301,876 274,943 C 206,1011 166,1011 112,943 Z"/>
<path style="fill:rgb(193,189,155);stroke:none;fill-opacity:1" d="M 490,328 C 445,254 652,254 696,358 C 711,446 681,431 578,446 C 504,490 490,401 490,328 Z"/>
<path style="fill:rgb(193,193,155);stroke:none;fill-opacity:1" d="M 1173,574 C 1242,546 1298,670 1228,740 C 1160,782 1173,754 1118,684 C 1076,657 1118,616 1173,574 Z"/>

</svg>

