<?xml version="1.0" encoding="UTF-8" standalone="no" ?>
<svg xmlns="http://www.w3.org/2000/svg" width="1600" height="900" viewBox="0 0 1600 900">
<rect x="0" y="0" width="1600" height="900" style="fill: #121212;"/>
<path style="fill:hsla(350.320190,54%,62%,0.720000);stroke:none;fill-opacity:1" d="M 382,680 C 325,661 402,479 450,517 C 526,537 545,565 517,623 C 478,690 430,719 382,680 Z"/>
<path style="fill:hsla(90.932060,56%,74%,0.720000);stroke:none;fill-opacity:1" d="M 1048,575 C 1021,584 931,458 976,440 C 1012,421 1039,376 1076,431 C 1112,494 1130,530 1048,575 Z"/>
<path style="fill:hsla(118.048553,47%,79%,0.720000);stroke:none;fill-opacity:1" d="M 1388,582 C 1296,517 1532,386 1597,438 C 1624,478 1663,556 1611,609 C 1519,648 1427,687 1388,582 Z"/>
<path style="fill:hsla(81.095840,60%,80%,0.720000);stroke:none;fill-opacity:1" d="M 797,544 C 820,591 633,649 598,603 C 575,533 563,486 633,486 C 703,451 785,451 797,544 Z"/>
<path style="fill:hsla(139.512238,37%,59%,0.720000);stroke:none;fill-opacity:1" d="M 129,191 C 129,129 326,92 376,178 C 413,240 351,265 289,277 C 227,277 141,290 129,191 Z"/>
<path style="fill:hsla(141.445602,52%,63%,0.720000);stroke:none;fill-opacity:1" d="M 901,58 C 923,15 1118,113 1053,178 C 1031,232 999,264 966,210 C 880,156 858,134 901,58 Z"/>
<path style="fill:hsla(218.822998,55%,63%,0.720000);stroke:none;fill-opacity:1" d="M 414,253 C 406,221 533,158 549,190 C 565,237 581,253 533,277 C 486,309 446,301 414,253 Z"/>
<path style="fill:hsla(158.913406,60%,60%,0.720000);stroke:none;fill-opacity:1" d="M 747,158 C 778,97 940,138 940,209 C 940,289 889,249 838,249 C 758,279 747,209 747,158 Z"/>
<path style="fill:hsla(344.586487,64%,79%,0.720000);stroke:none;fill-opacity:1" d="M 569,464 C 538,417 677,402 708,433 C 739,487 724,494 677,518 C 654,525 584,525 569,464 Z"/>
<path style="fill:hsla(41.091888,43%,78%,0.720000);stroke:none;fill-opacity:1" d="M 716,298 C 744,241 926,385 859,423 C 811,451 764,499 725,432 C 649,394 687,337 716,298 Z"/>
<path style="fill:hsla(249.963562,62%,60%,0.720000);stroke:none;fill-opacity:1" d="M 157,173 C 197,212 78,307 23,252 C 0,220 7,173 38,157 C 86,102 133,110 157,173 Z"/>
<path style="fill:hsla(318.062286,37%,62%,0.720000);stroke:none;fill-opacity:1" d="M 545,43 C 563,-21 721,43 693,108 C 693,173 628,173 610,164 C 554,164 508,108 545,43 Z"/>
<path style="fill:hsla(42.907887,44%,65%,0.720000);stroke:none;fill-opacity:1" d="M 794,687 C 832,650 907,864 857,927 C 781,965 769,914 756,864 C 756,763 680,687 794,687 Z"/>
<path style="fill:hsla(297.360565,54%,82%,0.720000);stroke:none;fill-opacity:1" d="M 243,368 C 243,310 416,252 439,368 C 451,460 474,495 393,460 C 347,472 243,437 243,368 Z"/>
<path style="fill:hsla(146.467194,45%,56%,0.720000);stroke:none;fill-opacity:1" d="M 1581,596 C 1600,625 1486,730 1438,692 C 1419,625 1419,616 1448,568 C 1495,539 1562,549 1581,596 Z"/>
<path style="fill:hsla(109.192665,47%,69%,0.720000);stroke:none;fill-opacity:1" d="M 1406,162 C 1352,117 1513,72 1567,99 C 1576,126 1585,153 1531,180 C 1495,225 1424,207 1406,162 Z"/>
<path style="fill:hsla(63.502941,55%,78%,0.720000);stroke:none;fill-opacity:1" d="M 913,480 C 932,471 1024,591 969,646 C 904,655 876,673 876,618 C 849,581 858,498 913,480 Z"/>
<path style="fill:hsla(164.913483,48%,70%,0.720000);stroke:none;fill-opacity:1" d="M 1539,401 C 1580,442 1378,532 1368,462 C 1318,412 1368,391 1418,361 C 1459,301 1499,341 1539,401 Z"/>
<path style="fill:hsla(321.963135,55%,69%,0.720000);stroke:none;fill-opacity:1" d="M 1025,671 C 975,621 1187,496 1225,558 C 1262,658 1212,671 1187,696 C 1137,796 1037,721 1025,671 Z"/>
<path style="fill:hsla(80.193588,55%,83%,0.720000);stroke:none;fill-opacity:1" d="M 955,226 C 1052,275 955,444 883,432 C 798,432 786,396 810,323 C 858,263 846,178 955,226 Z"/>

</svg>

