<?xml version="1.0" encoding="UTF-8" standalone="no" ?>
<svg xmlns="http://www.w3.org/2000/svg" width="1920" height="1080" viewBox="0 0 1920 1080">
<rect x="0" y="0" width="1920" height="1080" style="fill: rgb(237, 237, 237);"/>
<path style="fill:hsla(287.253876,56%,66%,0.750000);stroke:none;fill-opacity:1" d="M 817,630 C 743,668 743,495 817,495 C 866,507 866,433 891,520 C 891,581 878,618 817,630 Z"/>
<path style="fill:hsla(105.936035,48%,82%,0.750000);stroke:none;fill-opacity:1" d="M 856,369 C 915,354 945,575 841,605 C 783,605 753,561 753,472 C 738,383 783,383 856,369 Z"/>
<path style="fill:hsla(318.953735,38%,72%,0.750000);stroke:none;fill-opacity:1" d="M 245,905 C 166,921 229,732 308,701 C 371,748 387,748 434,826 C 450,890 308,921 245,905 Z"/>
<path style="fill:hsla(241.934998,37%,56%,0.750000);stroke:none;fill-opacity:1" d="M 879,313 C 805,301 903,203 964,191 C 1037,203 1050,179 1037,264 C 1025,301 940,350 879,313 Z"/>
<path style="fill:hsla(21.622475,46%,64%,0.750000);stroke:none;fill-opacity:1" d="M 334,820 C 311,866 221,729 232,684 C 266,639 300,639 322,661 C 402,707 379,763 334,820 Z"/>
<path style="fill:hsla(255.377792,57%,65%,0.750000);stroke:none;fill-opacity:1" d="M 94,591 C 52,619 52,409 108,381 C 164,367 192,395 248,465 C 290,507 150,605 94,591 Z"/>
<path style="fill:hsla(169.098083,35%,73%,0.750000);stroke:none;fill-opacity:1" d="M 1222,742 C 1283,782 1141,833 1121,803 C 1091,772 1030,732 1080,712 C 1121,661 1191,712 1222,742 Z"/>
<path style="fill:hsla(80.970245,33%,56%,0.750000);stroke:none;fill-opacity:1" d="M 1158,519 C 1201,460 1304,636 1245,695 C 1186,769 1186,695 1158,681 C 1084,636 1084,593 1158,519 Z"/>
<path style="fill:hsla(209.352737,47%,72%,0.750000);stroke:none;fill-opacity:1" d="M 711,46 C 782,82 747,187 664,187 C 618,151 571,128 571,93 C 606,23 653,11 711,46 Z"/>
<path style="fill:hsla(124.394409,36%,55%,0.750000);stroke:none;fill-opacity:1" d="M 709,584 C 746,508 848,672 784,722 C 746,747 709,785 659,722 C 570,660 646,647 709,584 Z"/>
<path style="fill:hsla(78.141914,51%,71%,0.750000);stroke:none;fill-opacity:1" d="M 1065,215 C 978,215 1065,-30 1151,-1 C 1223,28 1238,86 1252,128 C 1238,200 1137,215 1065,215 Z"/>
<path style="fill:hsla(37.959702,35%,79%,0.750000);stroke:none;fill-opacity:1" d="M 820,207 C 866,230 741,320 708,297 C 651,252 662,275 696,241 C 730,185 775,162 820,207 Z"/>
<path style="fill:hsla(87.022453,57%,80%,0.750000);stroke:none;fill-opacity:1" d="M 896,1086 C 839,1057 896,902 952,902 C 1023,902 1051,959 1008,1015 C 994,1086 952,1100 896,1086 Z"/>
<path style="fill:hsla(12.768867,43%,57%,0.750000);stroke:none;fill-opacity:1" d="M 1637,448 C 1571,421 1717,289 1782,316 C 1849,316 1862,395 1836,434 C 1796,488 1704,488 1637,448 Z"/>
<path style="fill:hsla(339.439545,50%,69%,0.750000);stroke:none;fill-opacity:1" d="M 1258,614 C 1245,702 1120,526 1171,476 C 1196,438 1221,451 1258,501 C 1308,551 1321,576 1258,614 Z"/>
<path style="fill:hsla(233.675201,44%,72%,0.750000);stroke:none;fill-opacity:1" d="M 1455,426 C 1455,384 1528,405 1560,457 C 1560,509 1570,541 1507,551 C 1434,551 1476,478 1455,426 Z"/>
<path style="fill:hsla(185.225372,57%,63%,0.750000);stroke:none;fill-opacity:1" d="M 1494,497 C 1564,525 1438,679 1382,665 C 1326,637 1270,595 1326,539 C 1354,441 1424,469 1494,497 Z"/>
<path style="fill:hsla(204.083282,40%,70%,0.750000);stroke:none;fill-opacity:1" d="M 1522,904 C 1447,917 1447,781 1535,756 C 1571,768 1658,768 1671,830 C 1696,892 1571,929 1522,904 Z"/>

</svg>

