<?xml version="1.0" encoding="UTF-8" standalone="no" ?>
<svg xmlns="http://www.w3.org/2000/svg" width="1920" height="1080" viewBox="0 0 1920 1080">
<rect x="0" y="0" width="1920" height="1080" style="fill: #E5E5E5;"/>
<path style="fill:hsla(42.983376,36%,78%,0.750000);stroke:none;fill-opacity:1" d="M 1564,777 C 1464,752 1689,602 1739,665 C 1776,752 1788,752 1739,777 C 1689,852 1614,852 1564,777 Z"/>
<path style="fill:hsla(235.053391,51%,75%,0.750000);stroke:none;fill-opacity:1" d="M 1577,41 C 1588,-37 1803,53 1758,132 C 1724,223 1713,200 1633,177 C 1554,166 1520,121 1577,41 Z"/>
<path style="fill:hsla(250.037064,59%,60%,0.750000);stroke:none;fill-opacity:1" d="M 214,182 C 236,269 -4,225 6,160 C 17,138 50,50 105,72 C 192,72 214,138 214,182 Z"/>
<path style="fill:hsla(321.302002,63%,65%,0.750000);stroke:none;fill-opacity:1" d="M 271,968 C 271,1068 21,1006 21,943 C 33,868 58,818 146,855 C 234,868 321,893 271,968 Z"/>
<path style="fill:hsla(2.213056,55%,78%,0.750000);stroke:none;fill-opacity:1" d="M 322,934 C 294,963 160,858 217,810 C 236,753 256,743 303,791 C 360,839 341,877 322,934 Z"/>
<path style="fill:hsla(160.573166,59%,84%,0.750000);stroke:none;fill-opacity:1" d="M 636,640 C 586,640 536,491 606,451 C 675,441 685,451 695,501 C 745,550 725,600 636,640 Z"/>
<path style="fill:hsla(271.505859,47%,78%,0.750000);stroke:none;fill-opacity:1" d="M 743,596 C 754,549 917,619 928,700 C 870,793 870,770 812,735 C 708,712 731,665 743,596 Z"/>
<path style="fill:hsla(281.727722,34%,64%,0.750000);stroke:none;fill-opacity:1" d="M 1011,976 C 1090,1041 841,1120 788,1054 C 736,950 788,976 841,910 C 893,819 946,923 1011,976 Z"/>
<path style="fill:hsla(152.431427,32%,62%,0.750000);stroke:none;fill-opacity:1" d="M 1332,393 C 1277,488 1059,325 1114,284 C 1168,229 1196,134 1264,215 C 1386,270 1400,311 1332,393 Z"/>
<path style="fill:hsla(249.453979,37%,56%,0.750000);stroke:none;fill-opacity:1" d="M 851,755 C 791,827 684,659 708,588 C 779,516 815,552 839,588 C 911,671 923,671 851,755 Z"/>
<path style="fill:hsla(177.366241,40%,75%,0.750000);stroke:none;fill-opacity:1" d="M 199,904 C 170,867 321,792 377,848 C 425,914 377,914 321,951 C 283,989 199,951 199,904 Z"/>
<path style="fill:hsla(40.748749,45%,70%,0.750000);stroke:none;fill-opacity:1" d="M 1033,749 C 971,811 834,637 921,562 C 983,537 1021,550 1045,575 C 1120,637 1070,699 1033,749 Z"/>
<path style="fill:hsla(120.560852,64%,63%,0.750000);stroke:none;fill-opacity:1" d="M 1,965 C 1,890 193,837 214,943 C 193,997 182,1039 129,1039 C 65,1082 11,1007 1,965 Z"/>
<path style="fill:hsla(125.994980,38%,83%,0.750000);stroke:none;fill-opacity:1" d="M 257,322 C 257,229 522,269 495,388 C 482,467 455,454 389,467 C 270,467 204,414 257,322 Z"/>
<path style="fill:hsla(314.023468,56%,75%,0.750000);stroke:none;fill-opacity:1" d="M 435,902 C 389,970 263,787 332,741 C 366,695 412,672 446,730 C 492,776 469,844 435,902 Z"/>
<path style="fill:hsla(205.571533,34%,61%,0.750000);stroke:none;fill-opacity:1" d="M 1432,711 C 1358,638 1517,467 1603,528 C 1664,589 1664,625 1590,674 C 1566,723 1480,784 1432,711 Z"/>
<path style="fill:hsla(353.764587,36%,60%,0.750000);stroke:none;fill-opacity:1" d="M 211,1019 C 166,1008 166,785 233,796 C 311,840 334,840 311,907 C 311,1008 267,1053 211,1019 Z"/>
<path style="fill:hsla(2.786844,59%,68%,0.750000);stroke:none;fill-opacity:1" d="M 1765,439 C 1711,457 1675,312 1738,276 C 1775,258 1793,276 1829,331 C 1865,385 1820,421 1765,439 Z"/>
<path style="fill:hsla(260.257294,53%,84%,0.750000);stroke:none;fill-opacity:1" d="M 1382,318 C 1369,426 1127,359 1114,318 C 1101,265 1114,198 1221,211 C 1275,184 1369,238 1382,318 Z"/>
<path style="fill:hsla(129.448746,47%,62%,0.750000);stroke:none;fill-opacity:1" d="M 615,754 C 656,713 751,957 683,984 C 615,1011 615,998 561,957 C 507,849 547,822 615,754 Z"/>
<path style="fill:hsla(20.806278,37%,60%,0.750000);stroke:none;fill-opacity:1" d="M 1110,714 C 1014,700 1165,494 1234,507 C 1344,535 1372,604 1289,645 C 1220,728 1207,796 1110,714 Z"/>
<path style="fill:hsla(260.596191,35%,84%,0.750000);stroke:none;fill-opacity:1" d="M 1547,679 C 1489,823 1316,564 1345,520 C 1446,434 1461,463 1489,506 C 1561,549 1634,592 1547,679 Z"/>

</svg>

