<?xml version="1.0" encoding="UTF-8" standalone="no" ?>
<svg xmlns="http://www.w3.org/2000/svg" width="1920" height="1080" viewBox="0 0 1920 1080">
<rect x="0" y="0" width="1920" height="1080" style="fill: rgb(237, 237, 237);"/>
<path style="fill:rgb(181,155,193);stroke:none;fill-opacity:1" d="M 357,985 C 283,1044 283,823 342,808 C 445,779 445,764 474,853 C 489,926 445,970 357,985 Z"/>
<path style="fill:rgb(190,193,155);stroke:none;fill-opacity:1" d="M 923,372 C 998,297 1028,490 998,565 C 909,625 909,580 850,535 C 805,462 850,402 923,372 Z"/>
<path style="fill:rgb(155,188,193);stroke:none;fill-opacity:1" d="M 1636,471 C 1722,434 1722,569 1660,619 C 1611,656 1525,643 1513,569 C 1525,496 1562,496 1636,471 Z"/>
<path style="fill:rgb(166,155,193);stroke:none;fill-opacity:1" d="M 78,178 C -7,136 134,24 204,38 C 274,94 288,122 232,178 C 190,262 134,234 78,178 Z"/>
<path style="fill:rgb(155,193,174);stroke:none;fill-opacity:1" d="M 1100,918 C 1124,1003 967,954 943,882 C 967,822 955,846 1027,834 C 1063,834 1075,858 1100,918 Z"/>
<path style="fill:rgb(193,181,155);stroke:none;fill-opacity:1" d="M 60,714 C -16,663 186,612 224,676 C 262,726 224,776 161,789 C 111,827 73,751 60,714 Z"/>
<path style="fill:rgb(155,193,168);stroke:none;fill-opacity:1" d="M 402,1035 C 322,1035 375,889 468,889 C 521,929 588,969 561,1008 C 561,1062 455,1088 402,1035 Z"/>
<path style="fill:rgb(193,170,155);stroke:none;fill-opacity:1" d="M 218,548 C 168,612 103,471 155,420 C 231,381 218,381 231,420 C 296,496 257,522 218,548 Z"/>
<path style="fill:rgb(155,193,173);stroke:none;fill-opacity:1" d="M 1657,461 C 1584,461 1570,318 1685,303 C 1728,289 1771,318 1786,375 C 1757,461 1742,476 1657,461 Z"/>
<path style="fill:rgb(166,193,155);stroke:none;fill-opacity:1" d="M 542,838 C 510,792 635,683 713,745 C 775,792 728,838 681,885 C 604,916 573,932 542,838 Z"/>
<path style="fill:rgb(193,177,155);stroke:none;fill-opacity:1" d="M 201,407 C 128,481 24,317 83,274 C 128,244 246,184 276,229 C 365,274 276,392 201,407 Z"/>
<path style="fill:rgb(155,193,173);stroke:none;fill-opacity:1" d="M 331,99 C 318,24 455,61 480,136 C 455,211 493,211 418,198 C 343,211 306,161 331,99 Z"/>
<path style="fill:rgb(169,155,193);stroke:none;fill-opacity:1" d="M 313,352 C 299,451 158,239 201,183 C 229,140 299,140 355,183 C 412,211 384,323 313,352 Z"/>
<path style="fill:rgb(193,165,155);stroke:none;fill-opacity:1" d="M 152,346 C 92,361 107,136 212,121 C 302,136 302,181 287,256 C 287,301 227,377 152,346 Z"/>
<path style="fill:rgb(155,193,172);stroke:none;fill-opacity:1" d="M 225,596 C 147,580 210,426 287,410 C 380,410 380,457 349,534 C 318,643 302,580 225,596 Z"/>
<path style="fill:rgb(155,170,193);stroke:none;fill-opacity:1" d="M 948,387 C 960,314 1058,375 1094,448 C 1107,509 1082,533 1021,509 C 960,521 936,460 948,387 Z"/>

</svg>

