<?xml version="1.0" encoding="UTF-8" standalone="no" ?>
<svg xmlns="http://www.w3.org/2000/svg" width="1920" height="1080" viewBox="0 0 1920 1080">
<rect x="0" y="0" width="1920" height="1080" style="fill: rgb(237, 237, 237);"/>
<path style="fill:hsla(273.129486,56%,79%,0.750000);stroke:none;fill-opacity:1" d="M 1252,808 C 1180,808 1204,630 1298,630 C 1370,654 1358,726 1346,748 C 1358,832 1298,796 1252,808 Z"/>
<path style="fill:hsla(238.045151,46%,77%,0.750000);stroke:none;fill-opacity:1" d="M 1306,839 C 1356,815 1406,950 1331,975 C 1258,987 1270,963 1233,913 C 1208,864 1270,852 1306,839 Z"/>
<path style="fill:hsla(32.037148,55%,70%,0.750000);stroke:none;fill-opacity:1" d="M 176,647 C 139,696 29,598 42,549 C 91,500 103,451 163,488 C 237,500 212,610 176,647 Z"/>
<path style="fill:hsla(196.115250,34%,64%,0.750000);stroke:none;fill-opacity:1" d="M 326,192 C 291,122 454,122 466,168 C 466,214 466,261 419,273 C 361,284 338,261 326,192 Z"/>
<path style="fill:hsla(263.387115,30%,55%,0.750000);stroke:none;fill-opacity:1" d="M 1692,912 C 1638,859 1811,751 1865,845 C 1892,938 1905,1018 1825,1032 C 1759,1058 1719,965 1692,912 Z"/>
<path style="fill:hsla(297.937927,43%,55%,0.750000);stroke:none;fill-opacity:1" d="M 226,535 C 251,445 365,547 365,610 C 326,686 314,674 276,661 C 226,610 213,597 226,535 Z"/>
<path style="fill:hsla(162.505844,31%,67%,0.750000);stroke:none;fill-opacity:1" d="M 807,1083 C 759,1144 662,1010 711,962 C 759,914 783,840 819,914 C 880,950 856,1034 807,1083 Z"/>
<path style="fill:hsla(60.520226,43%,81%,0.750000);stroke:none;fill-opacity:1" d="M 1249,250 C 1187,280 1218,67 1294,37 C 1385,21 1309,37 1339,98 C 1355,173 1324,219 1249,250 Z"/>
<path style="fill:hsla(231.479172,53%,57%,0.750000);stroke:none;fill-opacity:1" d="M 1463,289 C 1421,345 1365,162 1379,134 C 1435,63 1449,35 1505,92 C 1548,148 1519,218 1463,289 Z"/>
<path style="fill:hsla(246.181366,47%,60%,0.750000);stroke:none;fill-opacity:1" d="M 1147,346 C 1262,361 1133,546 1076,503 C 1033,475 962,403 1019,361 C 1033,289 1076,289 1147,346 Z"/>
<path style="fill:hsla(330.605408,61%,65%,0.750000);stroke:none;fill-opacity:1" d="M 1517,988 C 1458,1018 1458,827 1517,783 C 1575,768 1590,783 1619,842 C 1649,900 1604,988 1517,988 Z"/>
<path style="fill:hsla(231.575851,36%,62%,0.750000);stroke:none;fill-opacity:1" d="M 927,282 C 879,248 987,164 1010,200 C 1045,259 1117,259 1093,306 C 1069,366 975,330 927,282 Z"/>
<path style="fill:hsla(195.678070,58%,67%,0.750000);stroke:none;fill-opacity:1" d="M 619,173 C 632,235 520,223 471,160 C 471,124 433,99 483,87 C 532,37 607,136 619,173 Z"/>
<path style="fill:hsla(212.178391,33%,68%,0.750000);stroke:none;fill-opacity:1" d="M 1081,229 C 1097,136 1251,214 1267,276 C 1298,353 1298,368 1189,368 C 1097,353 1050,322 1081,229 Z"/>
<path style="fill:hsla(293.544891,43%,78%,0.750000);stroke:none;fill-opacity:1" d="M 972,1034 C 987,1136 799,1151 799,1049 C 813,977 770,890 857,875 C 958,846 1001,962 972,1034 Z"/>
<path style="fill:hsla(54.095058,56%,56%,0.750000);stroke:none;fill-opacity:1" d="M 238,769 C 175,707 301,675 343,707 C 364,759 395,780 364,822 C 311,853 270,790 238,769 Z"/>
<path style="fill:hsla(33.262470,45%,78%,0.750000);stroke:none;fill-opacity:1" d="M 611,427 C 582,517 478,337 523,264 C 553,189 553,159 596,219 C 701,279 641,367 611,427 Z"/>
<path style="fill:hsla(201.670471,53%,75%,0.750000);stroke:none;fill-opacity:1" d="M 608,487 C 622,555 475,528 421,474 C 380,435 434,448 461,435 C 541,408 568,408 608,487 Z"/>

</svg>

