<?xml version="1.0" encoding="UTF-8" standalone="no" ?>
<svg xmlns="http://www.w3.org/2000/svg" width="1600" height="900" viewBox="0 0 1600 900">
<rect x="0" y="0" width="1600" height="900" style="fill: #E5E5E5;"/>
<path style="fill:hsla(111.086151,51%,68%,0.720000);stroke:none;fill-opacity:1" d="M 918,704 C 967,675 1017,901 938,901 C 859,911 839,891 839,812 C 820,734 839,704 918,704 Z"/>
<path style="fill:hsla(234.684326,43%,77%,0.720000);stroke:none;fill-opacity:1" d="M 1411,713 C 1489,681 1614,869 1551,963 C 1442,1041 1426,979 1395,932 C 1332,885 1332,744 1411,713 Z"/>
<path style="fill:hsla(310.683472,54%,48%,0.720000);stroke:none;fill-opacity:1" d="M 1261,593 C 1248,512 1475,459 1502,486 C 1556,606 1529,620 1435,660 C 1342,727 1328,700 1261,593 Z"/>
<path style="fill:hsla(205.674271,40%,75%,0.720000);stroke:none;fill-opacity:1" d="M 1042,578 C 967,490 1257,427 1269,515 C 1269,578 1244,616 1181,654 C 1118,679 1042,629 1042,578 Z"/>
<path style="fill:hsla(49.701302,46%,68%,0.720000);stroke:none;fill-opacity:1" d="M 399,207 C 342,253 229,71 308,37 C 365,-41 388,-18 422,49 C 512,83 433,162 399,207 Z"/>
<path style="fill:hsla(287.538452,50%,68%,0.720000);stroke:none;fill-opacity:1" d="M 887,606 C 828,577 858,323 947,323 C 1007,353 1022,397 1037,472 C 1037,591 992,591 887,606 Z"/>
<path style="fill:hsla(310.534027,46%,51%,0.720000);stroke:none;fill-opacity:1" d="M 222,-86 C 299,-56 299,203 161,188 C 39,188 24,142 70,66 C 54,-56 161,-101 222,-86 Z"/>
<path style="fill:hsla(315.575653,63%,73%,0.720000);stroke:none;fill-opacity:1" d="M 793,552 C 771,630 570,597 603,519 C 637,441 603,407 681,418 C 748,418 826,496 793,552 Z"/>
<path style="fill:hsla(201.815414,48%,67%,0.720000);stroke:none;fill-opacity:1" d="M 193,445 C 263,445 273,624 183,634 C 104,644 104,604 94,545 C 114,495 114,465 193,445 Z"/>
<path style="fill:hsla(290.341614,57%,61%,0.720000);stroke:none;fill-opacity:1" d="M 1097,541 C 1220,587 1082,864 959,802 C 851,802 836,710 898,649 C 974,526 1036,480 1097,541 Z"/>
<path style="fill:hsla(79.037048,42%,68%,0.720000);stroke:none;fill-opacity:1" d="M 1299,732 C 1383,867 1080,901 1013,783 C 1013,699 1047,631 1080,631 C 1198,631 1299,699 1299,732 Z"/>
<path style="fill:hsla(107.609657,54%,76%,0.720000);stroke:none;fill-opacity:1" d="M 822,822 C 852,957 552,1017 537,897 C 507,777 522,837 612,762 C 672,732 747,747 822,822 Z"/>
<path style="fill:hsla(165.344711,54%,48%,0.720000);stroke:none;fill-opacity:1" d="M 1038,122 C 1102,8 1255,211 1204,288 C 1102,339 1089,402 1064,313 C 962,275 1000,199 1038,122 Z"/>
<path style="fill:hsla(181.071655,48%,59%,0.720000);stroke:none;fill-opacity:1" d="M 912,323 C 867,413 642,188 657,159 C 747,24 732,54 807,84 C 927,99 957,218 912,323 Z"/>
<path style="fill:hsla(74.621956,47%,73%,0.720000);stroke:none;fill-opacity:1" d="M 299,712 C 315,632 570,696 586,744 C 586,871 507,871 459,871 C 379,887 299,791 299,712 Z"/>

</svg>

