<?xml version="1.0" encoding="UTF-8" standalone="no" ?>
<svg xmlns="http://www.w3.org/2000/svg" width="1920" height="1080" viewBox="0 0 1920 1080">
<rect x="0" y="0" width="1920" height="1080" style="fill: #EEEEEE;"/>
<path style="fill:hsla(148.345657,39%,80%,0.750000);stroke:none;fill-opacity:1" d="M 357,953 C 321,1024 118,893 142,821 C 154,750 273,762 321,786 C 381,833 405,905 357,953 Z"/>
<path style="fill:hsla(186.405304,30%,65%,0.750000);stroke:none;fill-opacity:1" d="M 831,619 C 868,582 1017,756 955,806 C 880,855 793,855 781,806 C 719,731 769,681 831,619 Z"/>
<path style="fill:hsla(215.088058,38%,81%,0.750000);stroke:none;fill-opacity:1" d="M 1724,303 C 1752,331 1629,483 1591,445 C 1543,407 1534,341 1581,303 C 1619,255 1705,246 1724,303 Z"/>
<path style="fill:hsla(232.951355,62%,79%,0.750000);stroke:none;fill-opacity:1" d="M 1589,675 C 1660,652 1731,865 1660,912 C 1589,936 1506,889 1494,841 C 1447,770 1553,699 1589,675 Z"/>
<path style="fill:hsla(245.966202,47%,77%,0.750000);stroke:none;fill-opacity:1" d="M 1785,96 C 1860,141 1755,380 1680,365 C 1605,305 1561,230 1576,156 C 1605,81 1725,51 1785,96 Z"/>
<path style="fill:hsla(336.395355,45%,68%,0.750000);stroke:none;fill-opacity:1" d="M 1666,122 C 1656,81 1831,19 1873,70 C 1862,132 1842,194 1790,205 C 1738,215 1687,174 1666,122 Z"/>
<path style="fill:hsla(137.367828,36%,59%,0.750000);stroke:none;fill-opacity:1" d="M 573,981 C 545,953 658,756 714,770 C 770,826 812,925 784,967 C 728,1051 644,1023 573,981 Z"/>
<path style="fill:hsla(330.102844,54%,79%,0.750000);stroke:none;fill-opacity:1" d="M 1290,547 C 1324,536 1460,694 1392,740 C 1313,774 1256,751 1234,706 C 1200,660 1234,558 1290,547 Z"/>
<path style="fill:hsla(131.383087,44%,57%,0.750000);stroke:none;fill-opacity:1" d="M 1403,929 C 1326,914 1418,625 1494,656 C 1570,686 1646,808 1631,838 C 1615,929 1494,1006 1403,929 Z"/>
<path style="fill:hsla(29.786861,62%,82%,0.750000);stroke:none;fill-opacity:1" d="M 74,900 C 15,865 39,667 109,667 C 167,690 237,713 214,784 C 226,842 132,924 74,900 Z"/>
<path style="fill:hsla(275.353638,50%,68%,0.750000);stroke:none;fill-opacity:1" d="M 1116,406 C 1129,444 859,419 872,329 C 897,264 949,213 1013,226 C 1077,252 1142,316 1116,406 Z"/>
<path style="fill:hsla(147.528305,43%,59%,0.750000);stroke:none;fill-opacity:1" d="M 1430,499 C 1430,563 1200,614 1175,525 C 1175,474 1264,384 1302,384 C 1379,384 1417,461 1430,499 Z"/>
<path style="fill:hsla(318.898499,56%,72%,0.750000);stroke:none;fill-opacity:1" d="M 197,565 C 224,525 408,776 342,802 C 303,842 171,802 132,749 C 105,697 158,618 197,565 Z"/>
<path style="fill:hsla(262.004028,53%,70%,0.750000);stroke:none;fill-opacity:1" d="M 421,329 C 443,340 375,556 295,533 C 239,476 239,397 250,374 C 273,317 352,295 421,329 Z"/>
<path style="fill:hsla(46.744846,60%,82%,0.750000);stroke:none;fill-opacity:1" d="M 1183,80 C 1289,65 1259,353 1153,353 C 1092,353 1001,232 1001,201 C 1001,141 1123,65 1183,80 Z"/>
<path style="fill:hsla(259.568054,48%,81%,0.750000);stroke:none;fill-opacity:1" d="M 391,336 C 410,326 430,493 381,513 C 342,513 263,454 273,415 C 263,365 332,326 391,336 Z"/>
<path style="fill:hsla(123.298958,32%,67%,0.750000);stroke:none;fill-opacity:1" d="M 356,285 C 345,219 545,197 567,241 C 556,297 522,352 489,374 C 434,385 345,319 356,285 Z"/>
<path style="fill:hsla(179.139542,48%,77%,0.750000);stroke:none;fill-opacity:1" d="M 1429,837 C 1429,887 1248,867 1218,817 C 1248,756 1288,746 1328,746 C 1409,746 1439,796 1429,837 Z"/>
<path style="fill:hsla(343.600677,62%,63%,0.750000);stroke:none;fill-opacity:1" d="M 1221,869 C 1177,941 1004,739 1004,682 C 1062,595 1149,595 1206,624 C 1307,696 1293,797 1221,869 Z"/>
<path style="fill:hsla(349.722260,53%,72%,0.750000);stroke:none;fill-opacity:1" d="M 1341,243 C 1323,216 1484,163 1502,207 C 1502,243 1502,305 1457,314 C 1404,314 1350,297 1341,243 Z"/>

</svg>

