<?xml version="1.0" encoding="UTF-8" standalone="no" ?>
<svg xmlns="http://www.w3.org/2000/svg" width="1920" height="1080" viewBox="0 0 1920 1080">
<rect x="0" y="0" width="1920" height="1080" style="fill: rgb(237, 237, 237);"/>
<path style="fill:hsl(141.651566,18%,79%);stroke:none;fill-opacity:1" d="M 801,553 C 851,536 851,635 818,652 C 777,643 752,660 744,610 C 736,553 769,545 801,553 Z"/>
<path style="fill:hsl(11.129947,42%,68%);stroke:none;fill-opacity:1" d="M 1029,488 C 966,473 1076,333 1153,380 C 1215,427 1262,473 1200,519 C 1122,597 1091,566 1029,488 Z"/>
<path style="fill:hsl(78.205017,20%,80%);stroke:none;fill-opacity:1" d="M 1381,820 C 1455,844 1306,943 1245,919 C 1207,881 1207,832 1245,808 C 1306,745 1343,770 1381,820 Z"/>
<path style="fill:hsl(326.920410,37%,72%);stroke:none;fill-opacity:1" d="M 1144,1019 C 1098,991 1191,917 1209,927 C 1264,936 1292,964 1264,1000 C 1246,1056 1191,1065 1144,1019 Z"/>
<path style="fill:hsl(136.592255,19%,83%);stroke:none;fill-opacity:1" d="M 876,341 C 814,350 858,253 920,235 C 973,235 973,244 982,288 C 973,350 920,332 876,341 Z"/>
<path style="fill:hsl(152.824875,48%,84%);stroke:none;fill-opacity:1" d="M 208,504 C 143,543 104,400 195,348 C 273,309 273,296 299,361 C 325,452 260,478 208,504 Z"/>
<path style="fill:hsl(347.552734,18%,78%);stroke:none;fill-opacity:1" d="M 471,820 C 531,844 507,976 435,952 C 387,940 339,964 327,892 C 315,820 399,832 471,820 Z"/>
<path style="fill:hsl(237.577972,47%,81%);stroke:none;fill-opacity:1" d="M 260,61 C 325,48 338,163 273,202 C 197,215 197,241 171,176 C 119,126 197,100 260,61 Z"/>
<path style="fill:hsl(60.250027,17%,80%);stroke:none;fill-opacity:1" d="M 1017,892 C 897,862 1032,727 1092,742 C 1167,772 1212,772 1182,862 C 1167,922 1092,907 1017,892 Z"/>
<path style="fill:hsl(219.362106,43%,79%);stroke:none;fill-opacity:1" d="M 1166,169 C 1129,160 1212,86 1239,86 C 1286,124 1258,142 1249,178 C 1221,216 1212,206 1166,169 Z"/>
<path style="fill:hsl(27.831524,36%,76%);stroke:none;fill-opacity:1" d="M 1790,390 C 1735,474 1665,280 1735,252 C 1790,224 1845,182 1887,224 C 1929,306 1845,334 1790,390 Z"/>
<path style="fill:hsl(313.645813,23%,84%);stroke:none;fill-opacity:1" d="M 247,886 C 177,906 197,778 247,768 C 315,758 365,758 355,808 C 355,866 295,886 247,886 Z"/>
<path style="fill:hsl(324.867340,27%,72%);stroke:none;fill-opacity:1" d="M 286,786 C 252,717 378,740 424,786 C 435,820 447,820 401,854 C 355,866 286,831 286,786 Z"/>
<path style="fill:hsl(143.320831,29%,83%);stroke:none;fill-opacity:1" d="M 182,680 C 153,767 51,651 51,564 C 95,477 139,521 196,535 C 284,550 225,636 182,680 Z"/>
<path style="fill:hsl(352.805450,18%,82%);stroke:none;fill-opacity:1" d="M 495,610 C 495,537 599,568 599,631 C 589,683 620,694 557,704 C 495,694 495,641 495,610 Z"/>
<path style="fill:hsl(88.693466,19%,78%);stroke:none;fill-opacity:1" d="M 959,922 C 974,817 1139,922 1124,997 C 1079,1102 1049,1102 1004,1087 C 914,1057 929,967 959,922 Z"/>
<path style="fill:hsl(28.571598,36%,83%);stroke:none;fill-opacity:1" d="M 486,536 C 391,536 501,395 563,395 C 658,427 658,489 642,520 C 595,614 548,583 486,536 Z"/>

</svg>

