<?xml version="1.0" encoding="UTF-8" standalone="no" ?>
<svg xmlns="http://www.w3.org/2000/svg" width="1920" height="1080" viewBox="0 0 1920 1080">
<rect x="0" y="0" width="1920" height="1080" style="fill: rgb(237, 237, 237);"/>
<path style="fill:rgb(179,193,155);stroke:none;fill-opacity:1" d="M 192,849 C 255,798 281,1000 243,1025 C 180,1038 143,1038 117,974 C 105,912 117,887 192,849 Z"/>
<path style="fill:rgb(155,173,193);stroke:none;fill-opacity:1" d="M 1299,306 C 1325,359 1180,319 1167,240 C 1193,174 1193,174 1246,187 C 1312,161 1299,240 1299,306 Z"/>
<path style="fill:rgb(155,193,172);stroke:none;fill-opacity:1" d="M 734,738 C 666,738 748,563 828,590 C 869,603 896,603 896,670 C 882,751 815,751 734,738 Z"/>
<path style="fill:rgb(193,190,155);stroke:none;fill-opacity:1" d="M 1735,793 C 1708,753 1871,657 1940,726 C 1940,793 1885,821 1844,848 C 1763,876 1749,848 1735,793 Z"/>
<path style="fill:rgb(179,155,193);stroke:none;fill-opacity:1" d="M 1777,455 C 1808,517 1607,533 1576,424 C 1576,378 1607,378 1684,332 C 1777,363 1777,394 1777,455 Z"/>
<path style="fill:rgb(155,167,193);stroke:none;fill-opacity:1" d="M 615,1011 C 535,985 721,893 774,933 C 840,985 840,933 787,985 C 747,1038 668,1065 615,1011 Z"/>
<path style="fill:rgb(155,184,193);stroke:none;fill-opacity:1" d="M 373,211 C 401,123 548,240 504,312 C 445,400 430,459 344,415 C 256,356 300,255 373,211 Z"/>
<path style="fill:rgb(182,193,155);stroke:none;fill-opacity:1" d="M 1194,458 C 1194,521 1007,496 1007,446 C 995,384 1057,384 1119,359 C 1207,334 1182,409 1194,458 Z"/>
<path style="fill:rgb(155,193,157);stroke:none;fill-opacity:1" d="M 247,1019 C 287,1086 128,1059 88,1005 C 61,953 61,979 114,926 C 194,926 247,966 247,1019 Z"/>
<path style="fill:rgb(193,170,155);stroke:none;fill-opacity:1" d="M 1794,217 C 1838,261 1648,320 1604,247 C 1560,203 1575,203 1648,174 C 1735,130 1735,159 1794,217 Z"/>
<path style="fill:rgb(163,155,193);stroke:none;fill-opacity:1" d="M 1679,639 C 1603,578 1771,516 1832,608 C 1878,700 1893,669 1817,715 C 1771,776 1710,700 1679,639 Z"/>
<path style="fill:rgb(155,193,171);stroke:none;fill-opacity:1" d="M 729,174 C 729,99 878,149 890,224 C 878,260 853,310 791,323 C 729,360 717,236 729,174 Z"/>
<path style="fill:rgb(155,193,170);stroke:none;fill-opacity:1" d="M 1311,745 C 1279,665 1485,697 1501,792 C 1517,855 1485,919 1390,887 C 1311,887 1279,807 1311,745 Z"/>

</svg>

